<?xml version="1.0" encoding="utf-8"?>
<!-- Generated by Mocodo 4.1.2 -->
<svg width="953" height="770" viewBox="0 0 953 770" xmlns="http://www.w3.org/2000/svg">
<rect x="0" y="0" width="953" height="770" fill="#f7f7f7" stroke="none" stroke-width="0"/>

<!-- Association ACCEDER -->
<g>
	<line x1="364" y1="43" x2="213" y2="43" stroke="#8073ac" stroke-width="2"/>
	<line x1="64" y1="43" x2="213" y2="43" stroke="#8073ac" stroke-width="2"/>
	<g>
		<path d="M236 18 a14 14 90 0 1 14 14 V43 h-74 V32 a14 14 90 0 1 14 -14" fill="#b2abd2" stroke="#b2abd2" stroke-width="0"/>
		<path d="M250 43 v11 a14 14 90 0 1 -14 14 H190 a14 14 90 0 1 -14 -14 V43 H74" fill="#d8daeb" stroke="#d8daeb" stroke-width="0"/>
		<rect x="176" y="18" width="74" height="50" fill="none" rx="14" stroke="#8073ac" stroke-width="2"/>
		<line x1="176" y1="43" x2="250" y2="43" stroke="#8073ac" stroke-width="1"/>
		<text x="184" y="35.75" fill="#000000" font-family="Verdana" font-size="12">ACCEDER</text>
	</g>
	<text x="310" y="60" fill="#b35806" font-family="Verdana" font-size="12">1,N</text>
	<text x="103" y="60" fill="#b35806" font-family="Verdana" font-size="12">O,N</text>
</g>

<!-- Association PANIER -->
<g>
	<line x1="364" y1="43" x2="514" y2="43" stroke="#8073ac" stroke-width="2"/>
	<line x1="514" y1="195" x2="514" y2="43" stroke="#8073ac" stroke-width="2"/>
	<g>
		<path d="M537 18 a14 14 90 0 1 14 14 V43 h-74 V32 a14 14 90 0 1 14 -14" fill="#b2abd2" stroke="#b2abd2" stroke-width="0"/>
		<path d="M551 43 v11 a14 14 90 0 1 -14 14 H491 a14 14 90 0 1 -14 -14 V43 H74" fill="#d8daeb" stroke="#d8daeb" stroke-width="0"/>
		<rect x="477" y="18" width="74" height="50" fill="none" rx="14" stroke="#8073ac" stroke-width="2"/>
		<line x1="477" y1="43" x2="551" y2="43" stroke="#8073ac" stroke-width="1"/>
		<text x="491" y="35.75" fill="#000000" font-family="Verdana" font-size="12">PANIER</text>
		<text x="484" y="60.8" fill="#000000" font-family="Verdana" font-size="12">quantiteB</text>
	</g>
	<text x="396" y="60" fill="#b35806" font-family="Verdana" font-size="12">O,N</text>
	<text x="519" y="94" fill="#b35806" font-family="Verdana" font-size="12">O,N</text>
</g>

<!-- Association SE_DEROULER -->
<g>
	<line x1="213" y1="195" x2="64" y2="195" stroke="#8073ac" stroke-width="2"/>
	<line x1="64" y1="43" x2="64" y2="195" stroke="#8073ac" stroke-width="2"/>
	<g>
		<path d="M102 170 a14 14 90 0 1 14 14 V195 h-104 V184 a14 14 90 0 1 14 -14" fill="#b2abd2" stroke="#b2abd2" stroke-width="0"/>
		<path d="M116 195 v11 a14 14 90 0 1 -14 14 H26 a14 14 90 0 1 -14 -14 V195 H104" fill="#d8daeb" stroke="#d8daeb" stroke-width="0"/>
		<rect x="12" y="170" width="104" height="50" fill="none" rx="14" stroke="#8073ac" stroke-width="2"/>
		<line x1="12" y1="195" x2="116" y2="195" stroke="#8073ac" stroke-width="1"/>
		<text x="19" y="187.75" fill="#000000" font-family="Verdana" font-size="12">SE_DEROULER</text>
	</g>
	<text x="133" y="212" fill="#b35806" font-family="Verdana" font-size="12">1,1</text>
	<text x="69" y="94" fill="#b35806" font-family="Verdana" font-size="12">1,N</text>
</g>

<!-- Association ACHETER -->
<g>
	<line x1="364" y1="43" x2="364" y2="195" stroke="#8073ac" stroke-width="2"/>
	<line x1="514" y1="195" x2="364" y2="195" stroke="#8073ac" stroke-width="2"/>
	<g>
		<path d="M387 170 a14 14 90 0 1 14 14 V195 h-74 V184 a14 14 90 0 1 14 -14" fill="#b2abd2" stroke="#b2abd2" stroke-width="0"/>
		<path d="M401 195 v11 a14 14 90 0 1 -14 14 H341 a14 14 90 0 1 -14 -14 V195 H74" fill="#d8daeb" stroke="#d8daeb" stroke-width="0"/>
		<rect x="327" y="170" width="74" height="50" fill="none" rx="14" stroke="#8073ac" stroke-width="2"/>
		<line x1="327" y1="195" x2="401" y2="195" stroke="#8073ac" stroke-width="1"/>
		<text x="335" y="187.75" fill="#000000" font-family="Verdana" font-size="12">ACHETER</text>
		<text x="334" y="212.8" fill="#000000" font-family="Verdana" font-size="12">quantiteB</text>
	</g>
	<text x="369" y="94" fill="#b35806" font-family="Verdana" font-size="12">O,N</text>
	<text x="431" y="212" fill="#b35806" font-family="Verdana" font-size="12">O,N</text>
</g>

<!-- Association ORGANISER -->
<g>
	<line x1="213" y1="195" x2="213" y2="347" stroke="#8073ac" stroke-width="2"/>
	<line x1="64" y1="347" x2="213" y2="347" stroke="#8073ac" stroke-width="2"/>
	<g>
		<path d="M244 322 a14 14 90 0 1 14 14 V347 h-90 V336 a14 14 90 0 1 14 -14" fill="#b2abd2" stroke="#b2abd2" stroke-width="0"/>
		<path d="M258 347 v11 a14 14 90 0 1 -14 14 H182 a14 14 90 0 1 -14 -14 V347 H90" fill="#d8daeb" stroke="#d8daeb" stroke-width="0"/>
		<rect x="168" y="322" width="90" height="50" fill="none" rx="14" stroke="#8073ac" stroke-width="2"/>
		<line x1="168" y1="347" x2="258" y2="347" stroke="#8073ac" stroke-width="1"/>
		<text x="176" y="339.75" fill="#000000" font-family="Verdana" font-size="12">ORGANISER</text>
	</g>
	<text x="187" y="314" fill="#b35806" font-family="Verdana" font-size="12">1,1</text>
	<text x="112" y="364" fill="#b35806" font-family="Verdana" font-size="12">O,N</text>
</g>

<!-- Association PRESENTER -->
<g>
	<line x1="213" y1="195" x2="364" y2="347" stroke="#8073ac" stroke-width="2"/>
	<line x1="364" y1="474" x2="364" y2="347" stroke="#8073ac" stroke-width="2"/>
	<g>
		<path d="M393 322 a14 14 90 0 1 14 14 V347 h-86 V336 a14 14 90 0 1 14 -14" fill="#b2abd2" stroke="#b2abd2" stroke-width="0"/>
		<path d="M407 347 v11 a14 14 90 0 1 -14 14 H335 a14 14 90 0 1 -14 -14 V347 H86" fill="#d8daeb" stroke="#d8daeb" stroke-width="0"/>
		<rect x="321" y="322" width="86" height="50" fill="none" rx="14" stroke="#8073ac" stroke-width="2"/>
		<line x1="321" y1="347" x2="407" y2="347" stroke="#8073ac" stroke-width="1"/>
		<text x="328" y="339.75" fill="#000000" font-family="Verdana" font-size="12">PRESENTER</text>
	</g>
	<text x="272" y="248.4" fill="#b35806" font-family="Verdana" font-size="12">1,1</text>
	<text x="335" y="407" fill="#b35806" font-family="Verdana" font-size="12">O,N</text>
</g>

<!-- Association FAVORI -->
<g>
	<line x1="514" y1="195" x2="514" y2="347" stroke="#8073ac" stroke-width="2"/>
	<line x1="364" y1="474" x2="514" y2="347" stroke="#8073ac" stroke-width="2"/>
	<g>
		<path d="M531 322 a14 14 90 0 1 14 14 V347 h-62 V336 a14 14 90 0 1 14 -14" fill="#b2abd2" stroke="#b2abd2" stroke-width="0"/>
		<path d="M545 347 v11 a14 14 90 0 1 -14 14 H497 a14 14 90 0 1 -14 -14 V347 H62" fill="#d8daeb" stroke="#d8daeb" stroke-width="0"/>
		<rect x="483" y="322" width="62" height="50" fill="none" rx="14" stroke="#8073ac" stroke-width="2"/>
		<line x1="483" y1="347" x2="545" y2="347" stroke="#8073ac" stroke-width="1"/>
		<text x="491" y="339.75" fill="#000000" font-family="Verdana" font-size="12">FAVORI</text>
	</g>
	<text x="519" y="305" fill="#b35806" font-family="Verdana" font-size="12">O,N</text>
	<text x="433" y="430.57" fill="#b35806" font-family="Verdana" font-size="12">O,N</text>
</g>

<!-- Association HEBERGER -->
<g>
	<line x1="364" y1="474" x2="213" y2="474" stroke="#8073ac" stroke-width="2"/>
	<line x1="64" y1="474" x2="213" y2="474" stroke="#8073ac" stroke-width="2"/>
	<g>
		<path d="M240 449 a14 14 90 0 1 14 14 V474 h-82 V463 a14 14 90 0 1 14 -14" fill="#b2abd2" stroke="#b2abd2" stroke-width="0"/>
		<path d="M254 474 v11 a14 14 90 0 1 -14 14 H186 a14 14 90 0 1 -14 -14 V474 H82" fill="#d8daeb" stroke="#d8daeb" stroke-width="0"/>
		<rect x="172" y="449" width="82" height="50" fill="none" rx="14" stroke="#8073ac" stroke-width="2"/>
		<line x1="172" y1="474" x2="254" y2="474" stroke="#8073ac" stroke-width="1"/>
		<text x="180" y="466.75" fill="#000000" font-family="Verdana" font-size="12">HEBERGER</text>
	</g>
	<text x="273" y="466" fill="#b35806" font-family="Verdana" font-size="12">1,N</text>
	<text x="121" y="491" fill="#b35806" font-family="Verdana" font-size="12">O,N</text>
</g>

<!-- Association FAIRE_PARTIE -->
<g>
	<line x1="364" y1="474" x2="514" y2="474" stroke="#8073ac" stroke-width="2"/>
	<line x1="664" y1="474" x2="514" y2="474" stroke="#8073ac" stroke-width="2"/>
	<g>
		<path d="M552 449 a14 14 90 0 1 14 14 V474 h-104 V463 a14 14 90 0 1 14 -14" fill="#b2abd2" stroke="#b2abd2" stroke-width="0"/>
		<path d="M566 474 v11 a14 14 90 0 1 -14 14 H476 a14 14 90 0 1 -14 -14 V474 H104" fill="#d8daeb" stroke="#d8daeb" stroke-width="0"/>
		<rect x="462" y="449" width="104" height="50" fill="none" rx="14" stroke="#8073ac" stroke-width="2"/>
		<line x1="462" y1="474" x2="566" y2="474" stroke="#8073ac" stroke-width="1"/>
		<text x="470" y="466.75" fill="#000000" font-family="Verdana" font-size="12">FAIRE_PARTIE</text>
	</g>
	<text x="433" y="491" fill="#b35806" font-family="Verdana" font-size="12">1,N</text>
	<text x="573" y="491" fill="#b35806" font-family="Verdana" font-size="12">1,N</text>
</g>

<!-- Association JOUER -->
<g>
	<line x1="664" y1="474" x2="790" y2="474" stroke="#8073ac" stroke-width="2"/>
	<line x1="898" y1="474" x2="790" y2="474" stroke="#8073ac" stroke-width="2"/>
	<g>
		<path d="M804 449 a14 14 90 0 1 14 14 V474 h-56 V463 a14 14 90 0 1 14 -14" fill="#b2abd2" stroke="#b2abd2" stroke-width="0"/>
		<path d="M818 474 v11 a14 14 90 0 1 -14 14 H776 a14 14 90 0 1 -14 -14 V474 H56" fill="#d8daeb" stroke="#d8daeb" stroke-width="0"/>
		<rect x="762" y="449" width="56" height="50" fill="none" rx="14" stroke="#8073ac" stroke-width="2"/>
		<line x1="762" y1="474" x2="818" y2="474" stroke="#8073ac" stroke-width="1"/>
		<text x="770" y="466.75" fill="#000000" font-family="Verdana" font-size="12">JOUER</text>
	</g>
	<text x="733" y="491" fill="#b35806" font-family="Verdana" font-size="12">1,N</text>
	<text x="823" y="491" fill="#b35806" font-family="Verdana" font-size="12">O,N</text>
</g>

<!-- Association INTERPRETER -->
<g>
	<line x1="364" y1="474" x2="213" y2="609" stroke="#8073ac" stroke-width="2"/>
	<line x1="213" y1="710" x2="213" y2="609" stroke="#8073ac" stroke-width="2"/>
	<g>
		<path d="M249 584 a14 14 90 0 1 14 14 V609 h-100 V598 a14 14 90 0 1 14 -14" fill="#b2abd2" stroke="#b2abd2" stroke-width="0"/>
		<path d="M263 609 v11 a14 14 90 0 1 -14 14 H177 a14 14 90 0 1 -14 -14 V609 H100" fill="#d8daeb" stroke="#d8daeb" stroke-width="0"/>
		<rect x="163" y="584" width="100" height="50" fill="none" rx="14" stroke="#8073ac" stroke-width="2"/>
		<line x1="163" y1="609" x2="263" y2="609" stroke="#8073ac" stroke-width="1"/>
		<text x="171" y="601.75" fill="#000000" font-family="Verdana" font-size="12">INTERPRETER</text>
	</g>
	<text x="273" y="529.73" fill="#b35806" font-family="Verdana" font-size="12">1,N</text>
	<text x="218" y="660" fill="#b35806" font-family="Verdana" font-size="12">O,N</text>
</g>

<!-- Association PARTAGER_RS -->
<g>
	<line x1="364" y1="474" x2="364" y2="609" stroke="#8073ac" stroke-width="2"/>
	<line x1="364" y1="710" x2="364" y2="609" stroke="#8073ac" stroke-width="2"/>
	<g>
		<path d="M402 584 a14 14 90 0 1 14 14 V609 h-104 V598 a14 14 90 0 1 14 -14" fill="#b2abd2" stroke="#b2abd2" stroke-width="0"/>
		<path d="M416 609 v11 a14 14 90 0 1 -14 14 H326 a14 14 90 0 1 -14 -14 V609 H104" fill="#d8daeb" stroke="#d8daeb" stroke-width="0"/>
		<rect x="312" y="584" width="104" height="50" fill="none" rx="14" stroke="#8073ac" stroke-width="2"/>
		<line x1="312" y1="609" x2="416" y2="609" stroke="#8073ac" stroke-width="1"/>
		<text x="319" y="601.75" fill="#000000" font-family="Verdana" font-size="12">PARTAGER_RS</text>
	</g>
	<text x="369" y="550" fill="#b35806" font-family="Verdana" font-size="12">1,N</text>
	<text x="369" y="651" fill="#b35806" font-family="Verdana" font-size="12">O,N</text>
</g>

<!-- Association PARTAGER_RV -->
<g>
	<line x1="364" y1="474" x2="514" y2="609" stroke="#8073ac" stroke-width="2"/>
	<line x1="664" y1="609" x2="514" y2="609" stroke="#8073ac" stroke-width="2"/>
	<g>
		<path d="M552 584 a14 14 90 0 1 14 14 V609 h-104 V598 a14 14 90 0 1 14 -14" fill="#b2abd2" stroke="#b2abd2" stroke-width="0"/>
		<path d="M566 609 v11 a14 14 90 0 1 -14 14 H476 a14 14 90 0 1 -14 -14 V609 H104" fill="#d8daeb" stroke="#d8daeb" stroke-width="0"/>
		<rect x="462" y="584" width="104" height="50" fill="none" rx="14" stroke="#8073ac" stroke-width="2"/>
		<line x1="462" y1="609" x2="566" y2="609" stroke="#8073ac" stroke-width="1"/>
		<text x="469" y="601.75" fill="#000000" font-family="Verdana" font-size="12">PARTAGER_RV</text>
	</g>
	<text x="433" y="530.15" fill="#b35806" font-family="Verdana" font-size="12">1,N</text>
	<text x="581" y="626" fill="#b35806" font-family="Verdana" font-size="12">O,N</text>
</g>

<!-- Association A_SOUS_STYLE -->
<g>
	<path d="M213 710 C160 743.33 110.33 743.33 64 710" fill="none" stroke="#8073ac" stroke-width="2"/>
	<path d="M213 710 C161.33 676.67 111.67 676.67 64 710" fill="none" stroke="#8073ac" stroke-width="2"/>
	<g>
		<path d="M105 685 a14 14 90 0 1 14 14 V710 h-110 V699 a14 14 90 0 1 14 -14" fill="#b2abd2" stroke="#b2abd2" stroke-width="0"/>
		<path d="M119 710 v11 a14 14 90 0 1 -14 14 H23 a14 14 90 0 1 -14 -14 V710 H110" fill="#d8daeb" stroke="#d8daeb" stroke-width="0"/>
		<rect x="9" y="685" width="110" height="50" fill="none" rx="14" stroke="#8073ac" stroke-width="2"/>
		<line x1="9" y1="710" x2="119" y2="710" stroke="#8073ac" stroke-width="1"/>
		<text x="16" y="702.75" fill="#000000" font-family="Verdana" font-size="12">A_SOUS_STYLE</text>
	</g>
	<text x="124" y="726" fill="#b35806" font-family="Verdana" font-size="12">O,N</text>
	<text x="126" y="703" fill="#b35806" font-family="Verdana" font-size="12">     </text>
</g>

<!-- Entity JOURNEE -->
<g>
	<g>
		<rect x="30" y="9" width="68" height="25" fill="#fdb863" stroke="none" stroke-width="0" opacity="1"/>
		<rect x="30" y="34" width="68" height="43" fill="#fee0b6" stroke="none" stroke-width="0" opacity="1"/>
		<rect x="30" y="9" width="68" height="68" fill="none" stroke="#e08214" stroke-width="2" opacity="1"/>
		<line x1="30" y1="34" x2="98" y2="34" stroke="#e08214" stroke-width="1"/>
	</g>
	<text x="36" y="26.75" fill="#000000" font-family="Verdana" font-size="12">JOURNEE</text>
	<text x="35" y="51.8" fill="#000000" font-family="Verdana" font-size="12">idJ</text>
	<line x1="35" y1="54" x2="52" y2="54" stroke="#000000" stroke-width="1"/>
	<text x="35" y="68.8" fill="#000000" font-family="Verdana" font-size="12">dateJ</text>
</g>

<!-- Entity BILLET -->
<g>
	<g>
		<rect x="337" y="9" width="54" height="25" fill="#fdb863" stroke="none" stroke-width="0" opacity="1"/>
		<rect x="337" y="34" width="54" height="43" fill="#fee0b6" stroke="none" stroke-width="0" opacity="1"/>
		<rect x="337" y="9" width="54" height="68" fill="none" stroke="#e08214" stroke-width="2" opacity="1"/>
		<line x1="337" y1="34" x2="391" y2="34" stroke="#e08214" stroke-width="1"/>
	</g>
	<text x="343" y="26.75" fill="#000000" font-family="Verdana" font-size="12">BILLET</text>
	<text x="342" y="51.8" fill="#000000" font-family="Verdana" font-size="12">idB</text>
	<line x1="342" y1="54" x2="362" y2="54" stroke="#000000" stroke-width="1"/>
	<text x="342" y="68.8" fill="#000000" font-family="Verdana" font-size="12">prixB</text>
</g>

<!-- Entity EVENEMENT -->
<g>
	<g>
		<rect x="159" y="93" width="108" height="25" fill="#fdb863" stroke="none" stroke-width="0" opacity="1"/>
		<rect x="159" y="118" width="108" height="179" fill="#fee0b6" stroke="none" stroke-width="0" opacity="1"/>
		<rect x="159" y="93" width="108" height="204" fill="none" stroke="#e08214" stroke-width="2" opacity="1"/>
		<line x1="159" y1="118" x2="267" y2="118" stroke="#e08214" stroke-width="1"/>
	</g>
	<text x="176" y="110.75" fill="#000000" font-family="Verdana" font-size="12">EVENEMENT</text>
	<text x="164" y="135.8" fill="#000000" font-family="Verdana" font-size="12">idE</text>
	<line x1="164" y1="138" x2="183" y2="138" stroke="#000000" stroke-width="1"/>
	<text x="164" y="152.8" fill="#000000" font-family="Verdana" font-size="12">nomE</text>
	<text x="164" y="169.8" fill="#000000" font-family="Verdana" font-size="12">descriptionE</text>
	<text x="164" y="186.8" fill="#000000" font-family="Verdana" font-size="12">heureDebutE</text>
	<text x="164" y="203.8" fill="#000000" font-family="Verdana" font-size="12">dureeE</text>
	<text x="164" y="220.8" fill="#000000" font-family="Verdana" font-size="12">tpsMontageE</text>
	<text x="164" y="237.8" fill="#000000" font-family="Verdana" font-size="12">tpsDemontageE</text>
	<text x="164" y="254.8" fill="#000000" font-family="Verdana" font-size="12">idL</text>
	<text x="164" y="271.8" fill="#000000" font-family="Verdana" font-size="12">idJ</text>
	<text x="164" y="288.8" fill="#000000" font-family="Verdana" font-size="12">idG</text>
</g>

<!-- Entity SPECTATEUR -->
<g>
	<g>
		<rect x="460" y="102" width="108" height="25" fill="#fdb863" stroke="none" stroke-width="0" opacity="1"/>
		<rect x="460" y="127" width="108" height="161" fill="#fee0b6" stroke="none" stroke-width="0" opacity="1"/>
		<rect x="460" y="102" width="108" height="186" fill="none" stroke="#e08214" stroke-width="2" opacity="1"/>
		<line x1="460" y1="127" x2="568" y2="127" stroke="#e08214" stroke-width="1"/>
	</g>
	<text x="474" y="119.75" fill="#000000" font-family="Verdana" font-size="12">SPECTATEUR</text>
	<text x="465" y="144.8" fill="#000000" font-family="Verdana" font-size="12">idS</text>
	<line x1="465" y1="147" x2="485" y2="147" stroke="#000000" stroke-width="1"/>
	<text x="465" y="161.8" fill="#000000" font-family="Verdana" font-size="12">nomS</text>
	<text x="465" y="178.8" fill="#000000" font-family="Verdana" font-size="12">prenomS</text>
	<text x="465" y="195.8" fill="#000000" font-family="Verdana" font-size="12">mailS</text>
	<text x="465" y="212.8" fill="#000000" font-family="Verdana" font-size="12">dateNaissS</text>
	<text x="465" y="229.8" fill="#000000" font-family="Verdana" font-size="12">telS</text>
	<text x="465" y="246.8" fill="#000000" font-family="Verdana" font-size="12">nomUtilisateurS</text>
	<text x="465" y="263.8" fill="#000000" font-family="Verdana" font-size="12">mdpS</text>
	<text x="465" y="280.8" fill="#000000" font-family="Verdana" font-size="12">adminS</text>
</g>

<!-- Entity LIEU -->
<g>
	<g>
		<rect x="21" y="296" width="86" height="25" fill="#fdb863" stroke="none" stroke-width="0" opacity="1"/>
		<rect x="21" y="321" width="86" height="77" fill="#fee0b6" stroke="none" stroke-width="0" opacity="1"/>
		<rect x="21" y="296" width="86" height="102" fill="none" stroke="#e08214" stroke-width="2" opacity="1"/>
		<line x1="21" y1="321" x2="107" y2="321" stroke="#e08214" stroke-width="1"/>
	</g>
	<text x="50" y="313.75" fill="#000000" font-family="Verdana" font-size="12">LIEU</text>
	<text x="26" y="338.8" fill="#000000" font-family="Verdana" font-size="12">idL</text>
	<line x1="26" y1="341" x2="44" y2="341" stroke="#000000" stroke-width="1"/>
	<text x="26" y="355.8" fill="#000000" font-family="Verdana" font-size="12">nomL</text>
	<text x="26" y="372.8" fill="#000000" font-family="Verdana" font-size="12">adresseL</text>
	<text x="26" y="389.8" fill="#000000" font-family="Verdana" font-size="12">nbMaxSpecL</text>
</g>

<!-- Entity HEBERGEMENT -->
<g>
	<g>
		<rect x="12" y="423" width="104" height="25" fill="#fdb863" stroke="none" stroke-width="0" opacity="1"/>
		<rect x="12" y="448" width="104" height="77" fill="#fee0b6" stroke="none" stroke-width="0" opacity="1"/>
		<rect x="12" y="423" width="104" height="102" fill="none" stroke="#e08214" stroke-width="2" opacity="1"/>
		<line x1="12" y1="448" x2="116" y2="448" stroke="#e08214" stroke-width="1"/>
	</g>
	<text x="18" y="440.75" fill="#000000" font-family="Verdana" font-size="12">HEBERGEMENT</text>
	<text x="17" y="465.8" fill="#000000" font-family="Verdana" font-size="12">idH</text>
	<line x1="17" y1="468" x2="38" y2="468" stroke="#000000" stroke-width="1"/>
	<text x="17" y="482.8" fill="#000000" font-family="Verdana" font-size="12">nomH</text>
	<text x="17" y="499.8" fill="#000000" font-family="Verdana" font-size="12">adresseH</text>
	<text x="17" y="516.8" fill="#000000" font-family="Verdana" font-size="12">nbPlacesMaxH</text>
</g>

<!-- Entity GROUPE -->
<g>
	<g>
		<rect x="300" y="415" width="128" height="25" fill="#fdb863" stroke="none" stroke-width="0" opacity="1"/>
		<rect x="300" y="440" width="128" height="93" fill="#fee0b6" stroke="none" stroke-width="0" opacity="1"/>
		<rect x="300" y="415" width="128" height="118" fill="none" stroke="#e08214" stroke-width="2" opacity="1"/>
		<line x1="300" y1="440" x2="428" y2="440" stroke="#e08214" stroke-width="1"/>
	</g>
	<text x="338" y="432.75" fill="#000000" font-family="Verdana" font-size="12">GROUPE</text>
	<text x="305" y="457.8" fill="#000000" font-family="Verdana" font-size="12">idG</text>
	<line x1="305" y1="460" x2="326" y2="460" stroke="#000000" stroke-width="1"/>
	<text x="305" y="474.8" fill="#000000" font-family="Verdana" font-size="12">nomG</text>
	<text x="305" y="491.8" fill="#000000" font-family="Verdana" font-size="12">courteDescriptionG</text>
	<text x="305" y="508.8" fill="#000000" font-family="Verdana" font-size="12">longueDescriptionG</text>
	<text x="305" y="525.8" fill="#000000" font-family="Verdana" font-size="12">lienImageG</text>
</g>

<!-- Entity ARTISTE -->
<g>
	<g>
		<rect x="600" y="415" width="128" height="25" fill="#fdb863" stroke="none" stroke-width="0" opacity="1"/>
		<rect x="600" y="440" width="128" height="93" fill="#fee0b6" stroke="none" stroke-width="0" opacity="1"/>
		<rect x="600" y="415" width="128" height="118" fill="none" stroke="#e08214" stroke-width="2" opacity="1"/>
		<line x1="600" y1="440" x2="728" y2="440" stroke="#e08214" stroke-width="1"/>
	</g>
	<text x="638" y="432.75" fill="#000000" font-family="Verdana" font-size="12">ARTISTE</text>
	<text x="605" y="457.8" fill="#000000" font-family="Verdana" font-size="12">idA</text>
	<line x1="605" y1="460" x2="625" y2="460" stroke="#000000" stroke-width="1"/>
	<text x="605" y="474.8" fill="#000000" font-family="Verdana" font-size="12">nomA</text>
	<text x="605" y="491.8" fill="#000000" font-family="Verdana" font-size="12">courteDescriptionA</text>
	<text x="605" y="508.8" fill="#000000" font-family="Verdana" font-size="12">longueDescriptionA</text>
	<text x="605" y="525.8" fill="#000000" font-family="Verdana" font-size="12">lienImageA</text>
</g>

<!-- Entity INSTRUMENT -->
<g>
	<g>
		<rect x="852" y="440" width="92" height="25" fill="#fdb863" stroke="none" stroke-width="0" opacity="1"/>
		<rect x="852" y="465" width="92" height="43" fill="#fee0b6" stroke="none" stroke-width="0" opacity="1"/>
		<rect x="852" y="440" width="92" height="68" fill="none" stroke="#e08214" stroke-width="2" opacity="1"/>
		<line x1="852" y1="465" x2="944" y2="465" stroke="#e08214" stroke-width="1"/>
	</g>
	<text x="857" y="457.75" fill="#000000" font-family="Verdana" font-size="12">INSTRUMENT</text>
	<text x="857" y="482.8" fill="#000000" font-family="Verdana" font-size="12">idI</text>
	<line x1="857" y1="485" x2="874" y2="485" stroke="#000000" stroke-width="1"/>
	<text x="857" y="499.8" fill="#000000" font-family="Verdana" font-size="12">nomI</text>
</g>

<!-- Entity RESEAU_VIDEO -->
<g>
	<g>
		<rect x="610" y="558" width="108" height="25" fill="#fdb863" stroke="none" stroke-width="0" opacity="1"/>
		<rect x="610" y="583" width="108" height="77" fill="#fee0b6" stroke="none" stroke-width="0" opacity="1"/>
		<rect x="610" y="558" width="108" height="102" fill="none" stroke="#e08214" stroke-width="2" opacity="1"/>
		<line x1="610" y1="583" x2="718" y2="583" stroke="#e08214" stroke-width="1"/>
	</g>
	<text x="616" y="575.75" fill="#000000" font-family="Verdana" font-size="12">RESEAU_VIDEO</text>
	<text x="615" y="600.8" fill="#000000" font-family="Verdana" font-size="12">idRV</text>
	<line x1="615" y1="603" x2="643" y2="603" stroke="#000000" stroke-width="1"/>
	<text x="615" y="617.8" fill="#000000" font-family="Verdana" font-size="12">nomRV</text>
	<text x="615" y="634.8" fill="#000000" font-family="Verdana" font-size="12">lienRV</text>
	<text x="615" y="651.8" fill="#000000" font-family="Verdana" font-size="12">idG</text>
</g>

<!-- Entity STYLE_MUSICAL -->
<g>
	<g>
		<rect x="153" y="668" width="120" height="25" fill="#fdb863" stroke="none" stroke-width="0" opacity="1"/>
		<rect x="153" y="693" width="120" height="59" fill="#fee0b6" stroke="none" stroke-width="0" opacity="1"/>
		<rect x="153" y="668" width="120" height="84" fill="none" stroke="#e08214" stroke-width="2" opacity="1"/>
		<line x1="153" y1="693" x2="273" y2="693" stroke="#e08214" stroke-width="1"/>
	</g>
	<text x="163" y="685.75" fill="#000000" font-family="Verdana" font-size="12">STYLE_MUSICAL</text>
	<text x="158" y="710.8" fill="#000000" font-family="Verdana" font-size="12">idSt</text>
	<line x1="158" y1="713" x2="183" y2="713" stroke="#000000" stroke-width="1"/>
	<text x="158" y="727.8" fill="#000000" font-family="Verdana" font-size="12">nomSt</text>
	<text x="158" y="744.8" fill="#000000" font-family="Verdana" font-size="12">caracteristiquesSt</text>
</g>

<!-- Entity RESEAU_SOCIAL -->
<g>
	<g>
		<rect x="307" y="659" width="114" height="25" fill="#fdb863" stroke="none" stroke-width="0" opacity="1"/>
		<rect x="307" y="684" width="114" height="77" fill="#fee0b6" stroke="none" stroke-width="0" opacity="1"/>
		<rect x="307" y="659" width="114" height="102" fill="none" stroke="#e08214" stroke-width="2" opacity="1"/>
		<line x1="307" y1="684" x2="421" y2="684" stroke="#e08214" stroke-width="1"/>
	</g>
	<text x="313" y="676.75" fill="#000000" font-family="Verdana" font-size="12">RESEAU_SOCIAL</text>
	<text x="312" y="701.8" fill="#000000" font-family="Verdana" font-size="12">idRS</text>
	<line x1="312" y1="704" x2="340" y2="704" stroke="#000000" stroke-width="1"/>
	<text x="312" y="718.8" fill="#000000" font-family="Verdana" font-size="12">nomRS</text>
	<text x="312" y="735.8" fill="#000000" font-family="Verdana" font-size="12">lienRS</text>
	<text x="312" y="752.8" fill="#000000" font-family="Verdana" font-size="12">idG</text>
</g>
</svg>